<?xml version="1.0" standalone="no"?>
<!DOCTYPE svg PUBLIC "-//W3C//DTD SVG 20010904//EN"
 "http://www.w3.org/TR/2001/REC-SVG-20010904/DTD/svg10.dtd">
<svg version="1.0" xmlns="http://www.w3.org/2000/svg"
 width="920.000000pt" height="1010.000000pt" viewBox="0 0 920.000000 1010.000000"
 preserveAspectRatio="xMidYMid meet">

<g transform="translate(0.000000,1010.000000) scale(0.100000,-0.100000)"
fill="#000000" stroke="none">
<path d="M4385 10000 c-48 -7 -158 -35 -255 -65 -25 -7 -65 -19 -90 -25 -114
-30 -133 -50 -24 -24 141 33 726 -6 1004 -67 92 -20 221 -60 325 -101 74 -29
317 -150 311 -155 -2 -2 -53 20 -113 50 -156 79 -262 116 -467 166 -158 39
-403 79 -568 94 -53 4 -34 -8 32 -22 30 -6 66 -14 80 -16 94 -20 73 -27 -30
-10 -137 22 -413 19 -555 -5 -203 -34 -369 -94 -484 -173 -107 -73 -285 -269
-325 -358 -11 -23 -14 -26 -10 -9 17 68 95 195 181 292 129 145 272 253 448
340 93 45 111 57 80 52 -118 -19 -401 -144 -521 -229 -77 -55 -189 -174 -255
-273 -29 -43 -49 -68 -45 -57 14 39 72 128 129 199 l58 71 -75 -78 c-86 -89
-139 -186 -180 -327 -25 -85 -36 -71 -15 19 5 24 8 45 6 48 -6 5 -64 -141 -79
-198 -8 -35 -16 -45 -26 -41 -24 9 -9 -135 20 -200 14 -29 24 -66 24 -83 -1
-25 -5 -31 -28 -33 -16 -2 -28 -10 -28 -17 0 -8 -16 -17 -37 -21 -63 -12 -198
-60 -255 -91 -107 -59 -145 -87 -224 -168 -68 -68 -184 -220 -184 -240 0 -3
-16 -38 -36 -78 -20 -39 -51 -117 -69 -172 -32 -95 -34 -98 -34 -55 -1 59 46
192 97 277 76 127 291 372 385 439 70 50 77 57 45 45 -132 -50 -265 -150 -369
-280 -149 -185 -221 -411 -186 -582 15 -71 15 -80 -2 -136 -45 -147 -52 -325
-17 -422 19 -51 90 -149 114 -158 9 -3 30 -18 45 -32 l28 -25 -35 74 c-62 137
-83 320 -51 445 16 59 73 171 82 161 3 -3 0 -40 -6 -83 -6 -43 -11 -157 -12
-253 0 -169 1 -179 34 -300 27 -98 36 -120 41 -100 4 14 2 38 -3 54 -13 33
-14 49 -3 42 4 -3 19 -40 31 -83 53 -175 114 -322 154 -365 14 -15 44 -30 78
-38 78 -18 89 -26 89 -63 1 -18 11 -93 24 -167 13 -74 23 -136 21 -138 -2 -2
-15 13 -30 32 -15 20 -57 59 -93 88 -109 85 -190 77 -222 -24 -7 -24 -18 -49
-23 -55 -5 -7 -6 -13 -2 -13 4 0 3 -6 -3 -12 -6 -8 -11 -84 -11 -188 -1 -163
1 -183 29 -295 77 -310 287 -570 537 -667 41 -16 102 -31 137 -35 l62 -6 28
-101 c69 -253 119 -361 249 -536 48 -66 86 -124 83 -129 -3 -5 -6 -89 -7 -187
-1 -132 -5 -185 -15 -201 -12 -20 -68 -55 -281 -177 -46 -27 -83 -52 -83 -58
0 -5 -4 -7 -9 -4 -4 3 -159 -70 -343 -162 -184 -92 -384 -190 -444 -219 -60
-29 -176 -84 -259 -124 -82 -39 -179 -84 -215 -99 -36 -15 -153 -69 -260 -119
-107 -50 -197 -91 -201 -91 -4 0 -45 -17 -91 -39 -45 -21 -121 -56 -168 -77
-131 -59 -440 -218 -495 -255 -48 -32 -157 -135 -202 -190 -36 -45 -117 -172
-140 -219 -63 -132 -123 -309 -142 -425 -6 -33 -13 -73 -16 -90 -3 -16 -8
-109 -12 -205 -5 -149 -3 -198 16 -330 35 -253 43 -292 110 -563 l48 -197 -26
-25 c-14 -14 -50 -46 -78 -72 -43 -37 -53 -52 -53 -77 0 -18 4 -36 9 -42 5 -5
11 -20 13 -34 l3 -25 1069 -2 c588 -2 1083 1 1100 5 19 5 40 22 54 43 12 19
28 41 35 49 7 8 28 35 47 60 19 25 38 46 42 48 5 2 8 9 8 14 0 6 7 18 15 27
20 20 145 198 255 361 46 69 86 127 89 130 14 12 66 97 172 283 63 108 133
230 157 270 23 39 74 131 113 203 42 77 82 138 98 148 14 10 18 15 9 12 -25
-8 -23 3 17 63 19 29 35 58 35 65 0 6 7 22 16 34 8 12 13 22 10 22 -4 0 3 17
14 37 11 21 20 43 20 50 0 7 4 13 10 13 6 0 6 -9 0 -26 -13 -33 -13 -37 1 -28
7 4 10 2 8 -5 -3 -7 -9 -12 -14 -12 -6 0 -18 -14 -27 -32 -21 -39 -22 -52 -4
-35 8 7 12 16 10 19 -2 4 12 19 32 34 19 15 33 33 30 40 -2 7 2 16 10 19 8 3
14 16 14 30 0 14 4 27 9 30 4 3 14 27 21 53 7 27 17 53 21 58 12 17 49 118 44
123 -2 3 -9 -6 -14 -19 -25 -65 -51 -119 -57 -119 -3 0 -4 7 0 15 3 8 1 15 -5
15 -7 0 -9 -10 -5 -26 7 -25 -32 -144 -46 -144 -11 0 -10 18 2 25 7 4 6 13 -1
27 -8 15 -8 23 1 32 8 8 9 6 4 -8 -5 -12 -4 -17 3 -13 6 4 13 16 16 27 3 11 1
18 -4 14 -11 -7 -12 19 -1 32 15 16 58 158 66 216 1 10 5 21 9 24 4 4 7 16 7
27 0 11 10 35 21 54 16 26 24 31 30 21 5 -7 9 -8 9 -2 0 5 23 18 51 28 28 10
71 34 95 52 24 19 46 34 49 34 3 0 -5 -17 -18 -37 -13 -21 -36 -69 -51 -108
-15 -38 -32 -79 -36 -90 -14 -33 -19 -65 -10 -65 4 0 16 26 26 57 9 32 21 63
26 69 4 6 17 36 27 67 11 30 27 67 36 81 10 14 14 26 9 26 -5 0 23 33 62 72
41 42 91 108 119 156 26 46 49 81 52 78 3 -2 -2 -15 -10 -28 -9 -12 -21 -43
-27 -68 -16 -62 -112 -304 -123 -311 -5 -4 -7 -11 -3 -17 3 -6 3 -12 -1 -14
-7 -3 -44 -72 -49 -90 -1 -5 -3 -10 -4 -13 -1 -3 -3 -8 -5 -12 -1 -5 -9 -25
-19 -45 -9 -21 -16 -40 -16 -43 0 -3 -9 -21 -20 -40 -11 -19 -16 -35 -12 -35
5 0 19 25 33 55 13 30 27 55 30 55 4 0 12 15 20 33 7 17 35 79 62 137 27 58
57 125 66 151 30 77 46 109 55 109 4 0 5 -8 1 -17 -3 -10 -7 -22 -8 -28 -1 -5
-7 -14 -13 -20 -7 -5 -15 -21 -19 -35 -7 -22 -6 -23 8 -11 9 7 14 17 11 22 -3
5 -1 9 4 9 10 0 46 79 43 94 -1 4 7 24 19 43 11 19 20 42 20 53 0 10 7 20 15
24 17 6 21 -19 5 -29 -5 -3 -10 -12 -10 -18 0 -7 7 -3 16 8 10 14 13 31 9 53
-4 23 -3 32 4 27 6 -3 11 -14 11 -23 1 -16 1 -16 11 0 7 12 6 25 -2 40 -11 20
-10 21 3 11 8 -7 19 -9 23 -5 5 4 5 -1 2 -11 -4 -12 -3 -16 4 -11 6 3 9 19 7
35 -4 24 -2 27 10 16 13 -10 14 -8 8 16 -4 17 -3 26 2 23 24 -15 38 51 18 84
-5 8 -6 12 -1 8 5 -5 24 15 43 43 25 37 37 48 45 40 18 -18 31 -12 15 7 -24
26 -40 62 -29 62 5 0 12 -9 16 -19 11 -35 30 -31 30 7 0 28 -6 39 -29 53 -16
10 -35 15 -42 12 -30 -11 -11 9 47 52 38 28 72 45 89 45 40 0 123 -45 343
-188 136 -89 160 -111 194 -180 22 -46 27 -70 31 -173 3 -88 2 -119 -7 -119
-7 0 -9 5 -5 12 5 8 2 9 -12 3 -39 -16 -64 -17 -93 -2 -20 10 -31 11 -31 5 0
-6 -3 -9 -6 -6 -3 3 4 25 16 48 12 24 20 55 18 73 -3 32 -3 32 -32 -23 -32
-62 -63 -100 -83 -100 -7 0 -13 -6 -13 -12 0 -7 -10 6 -22 28 -29 51 -49 78
-68 89 -9 6 -7 -4 7 -28 32 -54 55 -127 44 -141 -10 -13 -34 -124 -91 -426
-47 -248 -67 -330 -117 -492 -29 -95 -39 -116 -50 -107 -10 9 -13 8 -13 0 0
-7 -4 -10 -9 -6 -5 3 -12 1 -16 -5 -4 -6 5 -10 22 -10 22 0 25 -2 13 -10 -8
-5 -22 -7 -31 -4 -9 2 -24 -2 -32 -11 -9 -8 -20 -15 -26 -15 -6 0 -11 -7 -11
-16 0 -9 5 -13 12 -9 15 8 -70 -72 -124 -116 -25 -20 -39 -26 -44 -18 -4 7 -3
9 3 6 5 -4 20 5 31 18 12 14 17 25 12 25 -6 0 -13 -7 -16 -15 -4 -8 -14 -15
-24 -15 -21 0 -34 -26 -17 -34 8 -3 6 -5 -3 -5 -8 -1 -26 -10 -40 -21 -27 -21
-55 -27 -44 -8 4 7 3 8 -5 4 -6 -4 -9 -11 -6 -16 3 -5 1 -11 -5 -15 -6 -4 -8
-11 -5 -16 4 -5 -1 -9 -10 -9 -9 0 -45 -13 -80 -30 -35 -16 -72 -32 -82 -33
-34 -7 -78 -31 -98 -54 -24 -28 -63 -37 -84 -20 -12 9 -13 9 -7 0 5 -9 1 -13
-11 -13 -11 0 -28 -7 -39 -16 -10 -8 -13 -12 -5 -8 9 5 12 3 7 -5 -4 -6 -15
-9 -25 -6 -11 3 -25 -4 -38 -17 -39 -45 -115 -185 -148 -277 -7 -20 -21 -54
-30 -76 -32 -75 2 -20 40 65 21 47 59 122 84 168 l46 83 40 -8 c22 -4 95 -8
163 -8 67 0 122 -1 122 -2 0 0 -13 -32 -30 -70 -28 -64 -29 -66 -30 -33 l-1
35 -13 -25 c-7 -14 -23 -63 -36 -110 -12 -47 -33 -120 -46 -162 -14 -42 -26
-86 -27 -97 0 -11 -5 -17 -11 -14 -5 4 -7 -1 -3 -10 4 -11 1 -17 -8 -17 -8 0
-15 -5 -15 -11 0 -6 7 -9 15 -5 20 7 19 -3 -2 -27 -10 -11 -12 -17 -5 -13 6 4
12 2 12 -3 0 -6 -5 -11 -11 -11 -6 0 -8 -7 -5 -16 3 -8 2 -12 -4 -9 -5 3 -14
-5 -21 -17 -10 -20 -10 -22 2 -13 8 6 6 2 -4 -7 -11 -10 -15 -18 -11 -18 5 0
9 -14 10 -30 1 -17 -3 -30 -7 -30 -5 0 -9 5 -9 10 0 6 -5 10 -10 10 -7 0 -8
-13 -4 -36 5 -27 4 -35 -5 -30 -6 4 -11 17 -12 29 0 21 -1 21 -8 2 -8 -19 -7
-45 1 -75 3 -8 3 -12 1 -8 -2 4 -12 4 -21 1 -15 -4 -15 -3 -2 7 12 9 12 11 1
8 -16 -4 -25 -38 -10 -38 5 0 0 -9 -12 -21 -12 -12 -19 -29 -16 -40 3 -10 2
-17 -2 -14 -4 2 -8 -9 -8 -25 0 -17 3 -31 6 -31 3 -1 18 -2 33 -3 15 -1 33 -7
40 -14 9 -9 279 -12 1198 -11 1230 0 1399 4 1428 33 16 15 15 17 -6 23 -17 4
-20 9 -12 18 8 9 6 14 -5 19 -9 3 -13 10 -10 16 3 5 -1 10 -9 10 -9 0 -16 4
-16 10 0 5 8 7 18 3 12 -4 10 2 -9 23 -14 16 -26 41 -27 56 -1 15 -13 50 -26
78 -13 27 -20 50 -15 50 6 0 3 10 -5 22 -9 12 -16 30 -16 40 0 9 -7 21 -16 26
-9 5 -14 17 -13 26 3 13 55 36 194 85 105 37 233 86 285 109 125 55 151 55
176 -2 7 -17 13 -24 14 -14 0 19 23 18 60 -2 19 -10 87 -7 120 5 3 1 19 6 37
10 23 5 30 12 26 24 -7 20 36 -28 79 -89 66 -93 154 -206 184 -235 17 -17 39
-48 49 -70 11 -22 40 -60 65 -85 25 -25 75 -76 110 -115 l64 -70 805 -3 c442
-2 808 1 812 5 4 4 11 40 14 79 l7 70 -76 64 c-45 39 -76 72 -76 83 0 11 11
65 24 121 37 154 75 340 81 403 2 17 6 42 10 54 20 62 33 251 30 449 -3 241
-5 257 -46 419 -93 369 -255 614 -519 786 -80 52 -449 234 -480 237 -3 1 -30
13 -60 29 -69 35 -277 129 -286 129 -4 0 -54 22 -111 50 -57 27 -106 50 -109
50 -3 0 -20 6 -37 14 -46 21 -318 146 -417 192 -155 71 -914 453 -1007 506
-50 29 -138 82 -196 117 l-105 64 -4 206 -5 206 26 30 c37 41 71 92 71 104 0
6 8 15 18 20 9 5 30 35 46 68 16 32 39 72 51 88 33 45 93 214 133 370 l17 70
80 20 c44 12 103 33 131 47 139 72 280 221 356 378 7 14 15 27 18 30 12 11 81
199 94 260 32 139 40 272 23 380 -3 14 -8 52 -11 85 -13 107 -55 196 -131 280
-25 27 -45 55 -45 62 0 7 28 50 61 95 34 46 79 119 100 163 37 78 121 305 113
305 -3 0 -8 -9 -12 -19 -4 -11 -8 75 -9 190 -2 194 5 247 21 167 3 -18 9 -78
13 -133 3 -55 8 -102 11 -105 5 -5 -4 244 -10 269 -2 9 8 15 29 18 26 3 35 -2
56 -29 59 -79 107 -217 107 -310 0 -53 2 -59 15 -48 53 44 68 320 27 480 -41
162 -103 323 -191 499 -44 86 -63 131 -57 131 7 0 86 -127 130 -210 51 -95 54
-97 27 -19 -27 81 -81 183 -152 289 -35 52 -68 102 -72 110 -10 17 55 -49 122
-125 116 -129 172 -187 177 -182 4 3 -8 23 -25 44 -145 179 -195 239 -200 243
-3 3 -22 22 -41 43 l-35 38 55 -24 c125 -55 248 -86 343 -87 34 0 35 16 1 24
-42 11 -24 15 29 7 50 -8 65 2 20 14 -98 24 -434 230 -418 255 7 11 -59 62
-76 58 -7 -2 -13 3 -14 10 0 7 -28 34 -62 60 -147 113 -330 260 -363 292 -20
19 -31 32 -26 28 15 -11 28 -10 21 2 -4 6 -27 21 -53 35 l-47 25 55 -6 c30 -3
82 -10 115 -14 68 -9 218 2 285 20 79 21 175 79 158 95 -2 2 -25 -2 -50 -10
-63 -18 -161 -27 -230 -19 -59 7 -76 19 -35 27 19 4 18 4 -5 6 -39 2 -257 48
-358 76 -47 13 -145 35 -218 50 -73 14 -147 33 -165 41 -24 11 -26 14 -7 9 91
-21 273 -55 277 -52 4 5 -37 27 -244 132 -121 62 -299 130 -367 142 -11 2 -27
10 -35 17 -9 7 -45 23 -81 35 -36 12 -92 33 -125 46 -104 40 -113 37 -25 -9
47 -25 135 -62 195 -81 176 -58 465 -184 465 -202 0 -3 -8 -2 -17 2 -10 4 -22
8 -28 9 -18 5 -50 19 -55 25 -9 11 -215 93 -375 151 -88 31 -185 69 -215 83
-97 45 -272 107 -365 127 -49 11 -146 23 -215 27 -120 6 -136 19 -30 23 34 1
40 3 25 9 -31 13 -185 20 -240 11z m1410 -480 c13 -5 14 -9 5 -9 -8 0 -24 4
-35 9 -13 5 -14 9 -5 9 8 0 24 -4 35 -9z m178 -4 c15 -4 27 -10 27 -15 0 -9
-64 10 -77 23 -4 4 -1 5 7 2 8 -2 27 -7 43 -10z m932 -795 c-3 -3 -18 8 -33
23 l-27 29 32 -23 c18 -13 30 -26 28 -29z m-3891 -30 c3 -4 -18 -11 -47 -15
-100 -12 -133 -17 -206 -37 -40 -11 -75 -18 -78 -16 -6 6 89 45 149 61 59 16
174 21 182 7z m-89 -51 c-3 -5 -21 -10 -38 -10 -45 0 -137 -25 -220 -60 -39
-16 -72 -28 -74 -26 -3 3 78 44 152 77 45 20 190 36 180 19z m1095 -390 c58
-6 156 -20 217 -33 74 -15 114 -19 117 -12 3 6 7 7 13 0 4 -5 17 -11 28 -13
11 -2 39 -10 63 -18 50 -17 65 -18 57 -4 -8 13 -8 13 52 -10 45 -17 55 -18 77
-6 53 27 276 -24 419 -95 181 -91 295 -195 459 -417 260 -351 236 -313 220
-347 -11 -23 -17 -26 -45 -22 -62 9 -433 87 -507 106 -164 43 -216 56 -231 56
-9 1 -24 7 -33 14 -13 11 -20 11 -28 3 -15 -15 -32 -16 -23 -2 3 6 0 10 -8 10
-16 0 -26 -28 -28 -80 l-1 -35 -9 30 c-5 19 -7 -12 -5 -85 3 -79 9 -125 20
-145 14 -27 14 -47 1 -195 -8 -91 -18 -234 -21 -317 -7 -152 -7 -153 14 -153
15 0 22 -6 22 -20 0 -13 7 -20 20 -20 17 0 20 -7 20 -40 l0 -40 40 0 c25 0 40
5 40 13 0 27 20 -19 20 -48 0 -42 20 -71 20 -30 0 57 40 195 76 266 47 94 112
162 188 198 64 31 155 52 215 50 26 -1 16 -5 -38 -15 -85 -17 -128 -37 -198
-92 -106 -84 -199 -277 -209 -432 -5 -86 5 -74 30 35 18 75 83 194 148 268
l38 42 -20 -45 c-38 -87 -20 -209 41 -283 61 -74 191 -113 287 -88 57 16 126
87 163 169 38 84 38 138 0 217 -26 57 -79 115 -103 115 -6 0 -9 3 -5 6 11 12
105 -29 117 -50 10 -20 10 -20 5 -1 -4 18 -3 17 15 -4 11 -13 20 -20 20 -17 0
10 51 -25 86 -59 42 -40 84 -103 84 -126 0 -11 5 -19 11 -19 5 0 7 -4 4 -10
-3 -5 -2 -10 3 -10 6 0 8 -10 5 -22 -4 -19 -3 -20 6 -8 9 12 10 8 5 -15 -29
-127 -168 -250 -326 -287 -78 -19 -355 -15 -447 6 -77 17 -106 16 -49 -3 105
-34 179 -44 313 -45 77 0 158 3 180 7 l40 7 -38 -15 c-21 -8 -44 -12 -51 -9
-8 3 -17 1 -21 -5 -18 -30 148 5 234 49 52 26 132 103 156 151 10 18 28 62 40
97 27 76 20 133 -25 227 -38 79 -87 134 -161 184 -68 46 -106 59 -199 71 l-65
9 75 -4 c137 -6 265 -76 335 -183 22 -34 46 -61 53 -62 8 0 27 -8 42 -17 24
-14 35 -15 68 -5 22 7 51 12 66 12 15 0 25 5 24 13 -2 7 6 11 22 9 14 -1 33
-4 43 -5 17 -1 18 -15 16 -214 -2 -187 -4 -213 -18 -214 -11 0 -12 -2 -3 -6 6
-2 9 -9 6 -15 -4 -6 -1 -14 6 -18 8 -5 1 -11 -21 -19 -31 -11 -32 -12 -13 -27
18 -15 18 -15 -3 -9 -13 4 -23 2 -23 -4 0 -5 10 -12 23 -14 15 -3 11 -5 -13
-6 -27 -1 -31 -4 -20 -11 12 -8 11 -10 -7 -10 -15 0 -23 -6 -23 -17 0 -13 -3
-14 -12 -5 -17 17 -33 15 -18 -3 16 -20 40 -19 40 0 0 13 2 14 14 3 12 -11 8
-15 -22 -25 -21 -6 -31 -12 -23 -12 8 -1 12 -4 8 -7 -3 -3 -14 -1 -24 5 -11 6
-13 11 -5 11 7 0 10 5 6 11 -4 8 -9 7 -15 -2 -4 -8 -3 -19 3 -27 6 -7 7 -12 2
-11 -5 1 -12 0 -16 -1 -12 -4 -27 -7 -37 -9 -6 0 -9 -10 -8 -22 1 -15 6 -19
23 -15 14 4 24 1 27 -9 4 -10 1 -12 -11 -8 -15 6 -15 5 -3 -10 12 -15 11 -17
-2 -17 -9 0 -20 7 -25 17 -11 18 -42 11 -42 -9 0 -10 2 -10 9 1 5 7 14 10 20
6 9 -5 7 -11 -6 -22 -10 -8 -13 -12 -7 -9 15 8 26 -21 12 -30 -7 -4 -8 -3 -4
4 15 25 -32 11 -48 -13 -17 -25 -17 -26 9 -19 15 4 25 2 25 -5 0 -6 -6 -8 -13
-6 -6 3 -18 -4 -25 -15 -10 -17 -10 -20 3 -20 13 0 14 -4 3 -22 -7 -13 -11
-28 -10 -35 4 -17 -17 -26 -32 -14 -10 8 -16 8 -25 -3 -9 -11 -8 -15 4 -20 9
-3 13 -2 10 4 -3 6 -2 10 2 10 5 0 14 -10 22 -21 12 -20 11 -21 -5 -15 -17 7
-17 6 0 -13 13 -14 14 -20 4 -24 -8 -3 -4 -9 12 -15 18 -8 20 -11 8 -11 -10
-1 -18 -6 -18 -12 0 -5 -5 -7 -11 -3 -8 4 -7 9 2 15 16 10 -1 12 -25 3 -14 -5
-14 -8 1 -30 13 -21 13 -27 2 -41 -12 -15 -12 -16 3 -10 12 4 24 -3 38 -23 23
-32 19 -40 -6 -15 -9 8 -19 15 -23 15 -10 0 -8 -81 3 -98 4 -6 4 -17 0 -23
-12 -20 -15 -87 -4 -94 6 -3 10 -12 10 -18 0 -7 -4 -6 -10 3 -5 8 -12 11 -16
7 -12 -12 -12 -71 0 -87 10 -13 9 -13 -7 -1 -9 8 -21 10 -25 6 -4 -4 -2 -10 5
-12 15 -5 7 -94 -9 -104 -7 -4 -13 -25 -14 -46 -1 -21 -3 -49 -4 -63 l-2 -25
-8 25 c-9 30 -16 16 -25 -53 -3 -27 -13 -51 -20 -53 -8 -3 -12 -11 -9 -19 3
-7 -2 -20 -11 -29 -9 -9 -14 -16 -10 -16 3 0 -2 -11 -11 -25 -8 -13 -13 -28
-10 -33 3 -5 -10 -24 -29 -42 -36 -35 -45 -60 -22 -60 8 0 7 -3 -3 -10 -9 -6
-17 -5 -22 3 -5 8 -8 6 -8 -5 0 -10 8 -19 18 -19 15 -1 15 -2 0 -6 -18 -5 -31
-30 -22 -44 3 -5 0 -9 -6 -9 -6 0 -14 -8 -17 -17 -4 -10 -19 -31 -35 -46 -15
-16 -28 -35 -28 -42 0 -8 -8 -12 -20 -10 -13 3 -20 -2 -20 -12 0 -10 -6 -13
-16 -9 -13 5 -15 2 -11 -14 3 -11 1 -20 -5 -20 -5 0 -6 -5 -2 -12 4 -7 3 -8
-4 -4 -7 4 -12 3 -12 -3 0 -6 -6 -9 -12 -7 -7 1 -10 1 -5 -1 4 -3 7 -11 7 -19
0 -8 -3 -13 -7 -13 -20 3 -43 -2 -42 -8 4 -25 -4 -40 -28 -56 -28 -18 -28 -18
-3 -11 24 6 24 6 5 -9 -11 -8 -23 -13 -28 -10 -16 10 -37 -18 -27 -36 11 -21
-16 -48 -42 -43 -9 2 -19 -2 -23 -7 -3 -6 1 -11 9 -11 9 0 16 -4 16 -10 0 -9
-6 -11 -49 -14 -8 -1 -16 -8 -18 -16 -4 -13 -3 -13 6 0 8 11 11 12 11 2 0 -7
5 -10 12 -6 6 4 8 3 4 -4 -3 -6 -1 -12 6 -15 7 -2 0 -3 -15 -1 -15 2 -26 0
-23 -4 3 -5 -29 -14 -70 -22 -71 -12 -211 -10 -304 5 -19 3 -80 13 -135 21
-101 15 -155 26 -320 62 -49 11 -126 28 -170 38 -59 12 -75 19 -60 24 18 7 15
10 -18 24 -39 17 -201 21 -191 5 2 -4 -1 -11 -7 -15 -8 -4 -9 -3 -5 4 4 7 1
12 -6 13 -10 0 -10 2 0 6 14 5 17 23 3 23 -4 0 -37 27 -71 60 -34 33 -68 60
-74 61 -7 0 -6 3 2 6 21 8 13 31 -14 37 -21 6 -25 12 -21 31 2 14 -1 29 -8 35
-9 8 -11 4 -7 -17 4 -27 4 -27 -12 -8 -8 11 -16 25 -16 31 0 6 -11 20 -25 30
-14 10 -25 24 -25 31 0 7 -5 13 -11 13 -5 0 -7 5 -4 10 3 6 2 10 -4 10 -5 0
-11 12 -13 27 -2 17 -12 32 -28 40 -14 7 -19 13 -12 13 19 0 14 20 -5 21 -10
0 -13 3 -6 5 7 3 2 14 -13 29 -13 13 -24 33 -24 44 0 11 -8 25 -19 30 -10 6
-21 24 -24 41 -4 18 -13 30 -22 30 -9 0 -14 4 -10 9 3 5 -6 18 -20 29 -14 11
-25 29 -25 41 0 12 -7 24 -15 27 -23 9 -37 41 -27 62 11 20 5 45 -9 36 -13 -8
-11 10 4 25 10 11 10 13 0 7 -8 -4 -13 -2 -14 6 -2 33 -11 63 -21 73 -8 7 -9
6 -3 -4 6 -10 4 -12 -4 -6 -8 4 -9 11 -3 17 5 5 2 30 -10 66 -10 31 -16 62
-14 69 3 7 0 13 -7 14 -9 0 -9 2 1 6 6 2 12 9 12 14 0 4 -6 6 -14 3 -10 -4
-12 2 -9 20 3 14 9 26 14 26 5 0 9 13 9 30 0 22 -4 28 -15 24 -8 -4 -15 -1
-15 6 0 6 5 8 10 5 15 -9 0 48 -14 57 -7 5 -5 8 6 8 9 0 18 -6 21 -12 4 -10 7
-10 18 0 9 9 10 12 1 12 -7 0 -12 7 -12 15 0 8 -5 15 -11 15 -5 0 -7 5 -3 12
5 8 0 9 -15 5 -18 -4 -20 -3 -10 9 17 20 39 17 39 -6 0 -24 15 -27 24 -4 8 20
-1 34 -20 34 -8 0 -14 9 -14 20 0 12 -7 20 -17 21 -17 1 -17 2 0 6 11 3 17 14
17 35 0 22 5 31 22 36 21 5 21 6 3 12 -23 8 -49 -14 -41 -35 8 -22 -7 -18 -22
5 -10 17 -10 20 2 20 17 0 31 18 21 28 -3 3 -10 0 -15 -8 -5 -8 -12 -11 -16
-7 -4 4 1 14 12 23 10 8 14 13 9 10 -6 -2 -11 3 -11 13 0 13 6 17 21 14 18 -3
18 -2 -2 8 -13 7 -23 16 -23 22 0 5 -7 4 -15 -3 -12 -10 -15 -10 -15 1 0 11
-2 11 -10 -1 -5 -8 -12 -11 -16 -7 -13 12 16 35 38 29 15 -3 19 -1 16 9 -2 7
-17 15 -33 16 -15 1 -34 4 -42 7 -7 3 -13 1 -13 -4 0 -6 -5 -10 -11 -10 -8 0
-8 5 1 15 10 12 10 15 0 15 -8 0 -10 3 -7 7 4 3 -1 12 -11 20 -15 12 -14 13 9
7 15 -3 30 -1 33 5 4 7 1 8 -8 5 -9 -4 -18 0 -22 9 -3 9 -13 13 -25 10 -11 -3
-19 0 -19 7 0 10 -3 10 -15 0 -8 -6 -20 -10 -27 -7 -8 4 -7 6 5 6 9 1 17 6 17
12 0 6 -7 9 -15 5 -13 -5 -20 10 -16 36 1 11 -38 30 -49 23 -5 -3 -11 -1 -15
5 -3 5 0 10 7 10 7 0 -1 10 -19 21 -18 11 -35 29 -38 40 -4 11 -16 29 -28 41
-12 11 -16 18 -9 14 6 -4 12 -3 12 3 0 5 -10 13 -21 16 -17 6 -19 9 -8 16 8 5
9 9 3 9 -8 0 -12 26 -13 73 -1 67 1 74 30 105 26 28 36 32 81 32 55 0 77 16
78 58 0 12 4 22 9 22 5 0 5 -16 0 -37 -11 -49 -11 -76 0 -69 5 3 14 -16 21
-42 14 -58 59 -130 110 -176 53 -48 171 -102 256 -116 82 -15 229 -9 247 9 9
10 8 11 -8 6 -16 -6 -17 -5 -5 4 8 6 33 11 55 11 53 0 157 23 228 50 67 25 72
38 6 15 -68 -24 -215 -45 -321 -45 -231 0 -412 75 -497 208 -40 63 -47 101
-27 141 16 31 33 44 23 17 -3 -7 27 19 67 58 77 77 158 130 240 157 28 10 52
16 54 15 1 -2 -10 -24 -24 -51 -39 -69 -45 -171 -14 -243 25 -59 91 -124 153
-153 59 -26 163 -26 222 2 59 28 123 100 131 148 13 77 15 77 50 -3 19 -42 34
-87 34 -99 0 -12 5 -29 10 -37 13 -20 13 -3 -1 95 -30 221 -138 382 -304 456
-39 17 -75 23 -165 27 -105 4 -122 2 -193 -22 -123 -41 -235 -126 -281 -211
l-16 -30 6 35 c18 118 271 250 479 250 273 -1 443 -154 511 -460 14 -63 26
-120 26 -126 1 -5 15 -8 32 -6 30 3 30 2 12 -12 -11 -9 -14 -16 -7 -16 7 0 10
-4 6 -9 -3 -6 6 -6 24 -1 20 6 32 5 35 -3 5 -9 8 -9 12 1 8 17 25 15 18 -2 -3
-7 -15 -19 -27 -25 -14 -8 -16 -10 -4 -6 10 3 32 5 48 5 18 0 29 5 28 13 -3
18 12 48 21 42 4 -3 10 2 14 10 3 8 0 15 -6 15 -7 0 -6 5 2 15 25 30 -10 485
-56 746 -9 52 -19 121 -21 154 -4 53 -3 58 9 41 13 -16 14 -3 15 105 0 68 -3
114 -7 104 -5 -15 -10 -7 -19 33 -7 28 -17 52 -22 52 -5 0 -9 -5 -9 -11 0 -6
-7 -8 -16 -5 -8 3 -48 -1 -87 -9 -40 -8 -88 -17 -107 -20 -19 -3 -37 -9 -40
-14 -6 -9 -150 -31 -203 -31 -21 0 -36 -4 -33 -9 3 -5 -15 -11 -42 -14 -26 -3
-72 -10 -102 -17 -171 -35 -208 -44 -235 -55 -16 -7 -66 -26 -109 -41 -87 -31
-170 -82 -228 -140 -22 -22 -38 -31 -38 -23 -3 138 -9 219 -17 235 -18 33 -24
86 -12 100 9 11 7 15 -5 20 -11 4 -13 11 -6 24 12 22 16 82 7 97 -7 11 2 65
26 151 8 28 11 52 6 52 -5 0 -9 -5 -9 -12 0 -6 -3 -9 -6 -6 -3 3 2 23 10 43
19 44 19 48 6 40 -16 -10 -12 3 15 45 28 44 31 55 13 44 -23 -14 37 61 92 116
125 126 252 184 470 216 87 13 137 12 320 -6z m2930 -588 c0 -14 -2 -14 -19 3
-10 11 -22 31 -26 45 l-6 25 25 -28 c14 -15 26 -36 26 -45z m-1068 -269 c7
-16 156 -142 238 -201 53 -38 95 -77 111 -104 44 -71 69 -153 69 -222 0 -59
-2 -64 -20 -59 -23 6 -24 1 -9 -30 9 -19 7 -18 -10 3 -11 14 -19 30 -17 35 5
16 -41 114 -86 183 -48 73 -116 137 -202 190 -34 20 -62 44 -64 52 -2 8 -10
22 -17 30 -26 30 -45 91 -35 111 11 19 35 26 42 12z m-47 -123 c29 -30 35 -40
21 -40 -27 0 -106 22 -106 29 0 11 30 51 39 51 4 0 25 -18 46 -40z m1042 -52
c-3 -7 -5 -2 -5 12 0 14 2 19 5 13 2 -7 2 -19 0 -25z m-4622 -97 c-8 -7 -25
49 -24 77 1 20 5 13 14 -23 8 -27 12 -51 10 -54z m4600 -100 c-12 -67 -29
-117 -58 -173 -45 -88 -68 -106 -33 -25 22 50 77 240 93 322 l8 40 3 -35 c2
-19 -4 -77 -13 -129z m-1288 -207 c-3 -3 -12 -4 -19 -1 -8 3 -5 6 6 6 11 1 17
-2 13 -5z m593 -29 c13 -14 21 -25 18 -25 -2 0 -15 11 -28 25 -13 14 -21 25
-18 25 2 0 15 -11 28 -25z m137 -72 c-3 -10 -5 -2 -5 17 0 19 2 27 5 18 2 -10
2 -26 0 -35z m-2617 -28 c-29 -16 -60 -19 -60 -6 0 10 27 17 65 19 17 1 17 -1
-5 -13z m1821 -55 c21 -12 25 -50 7 -68 -17 -17 -58 -15 -80 5 -22 20 -23 31
-1 55 18 20 45 23 74 8z m-1611 -15 c35 -42 -30 -97 -70 -60 -20 18 -27 55
-13 68 12 13 71 7 83 -8z m2799 -47 c20 -17 53 -56 74 -87 l39 -56 -59 -6
c-67 -7 -99 -21 -171 -79 -29 -22 -52 -38 -52 -35 0 10 30 158 47 228 16 67
16 67 51 67 24 0 45 -9 71 -32z m-94 -325 c20 -7 75 -118 75 -149 0 -17 -5
-20 -25 -16 -22 4 -25 1 -25 -22 0 -24 -4 -26 -40 -26 -33 0 -80 -13 -100 -28
-2 -2 2 -7 10 -12 12 -8 11 -10 -5 -11 -17 -1 -16 -2 5 -9 24 -8 24 -8 3 -9
-35 -2 -29 -31 6 -31 l30 0 3 -90 c2 -61 -1 -91 -9 -94 -6 -3 -14 -18 -18 -35
-4 -18 -13 -31 -21 -31 -9 0 -12 -5 -9 -10 7 -12 -12 -33 -37 -43 -10 -3 -18
-11 -18 -17 0 -5 -9 -10 -21 -10 -11 0 -17 -4 -14 -10 3 -5 0 -10 -8 -10 -8 0
-17 -6 -20 -14 -4 -9 -16 -12 -34 -9 -19 3 -24 2 -14 -5 10 -8 8 -13 -10 -25
-33 -24 -35 -14 -7 40 92 179 111 222 137 300 16 48 35 116 42 151 11 61 29
84 29 40 0 -19 2 -20 10 -8 7 11 10 11 10 2 0 -7 5 -10 10 -7 6 3 10 15 10 26
0 25 20 25 27 -1 3 -11 9 -20 14 -20 12 0 11 14 -2 27 -13 13 -5 43 10 43 5 0
7 -10 5 -22 -4 -22 -4 -22 6 1 6 14 16 21 25 17 10 -4 15 1 15 15 0 13 -4 18
-12 13 -8 -5 -9 -2 -5 10 8 21 -19 76 -37 76 -8 0 -16 -7 -20 -15 -8 -21 -26
-19 -26 4 0 26 24 36 55 24z m-79 -143 c8 0 14 -5 14 -11 0 -23 -35 -3 -37 21
-1 15 0 18 3 8 3 -10 12 -18 20 -18z m-3488 -45 c-3 -3 -9 2 -12 12 -6 14 -5
15 5 6 7 -7 10 -15 7 -18z m3292 21 c0 -2 -7 -7 -16 -10 -8 -3 -12 -2 -9 4 6
10 25 14 25 6z m354 -84 c-1 -113 -2 -122 -22 -122 -14 0 -17 -8 -17 -40 0
-22 -3 -40 -6 -40 -4 0 -5 -10 -1 -22 4 -16 2 -19 -8 -13 -8 5 -11 4 -6 -3 30
-48 -202 -293 -301 -318 -36 -9 -27 -24 10 -18 60 11 172 71 228 122 86 79
136 195 158 367 7 61 9 64 10 24 1 -45 1 -46 32 -41 21 3 30 1 25 -6 -12 -19
15 -24 29 -6 20 27 18 6 -7 -72 -12 -38 -22 -73 -24 -79 -7 -35 -68 -148 -91
-170 -15 -15 -22 -24 -15 -21 20 11 14 -1 -25 -57 -60 -87 -87 -121 -103 -134
-8 -6 -40 -35 -70 -63 -30 -28 -82 -66 -115 -85 -58 -31 -163 -71 -170 -64 -2
2 13 77 34 167 l37 163 58 24 c103 42 172 101 218 188 21 37 23 56 23 175 0
72 3 132 8 132 4 0 7 -19 8 -42 0 -24 3 -36 6 -28 3 8 13 23 22 33 15 18 16
18 23 -5 5 -16 7 -10 5 20 -2 26 2 42 9 42 6 0 14 14 18 30 10 52 21 32 20
-38z m-3529 -40 c-3 -3 -11 0 -18 7 -9 10 -8 11 6 5 10 -3 15 -9 12 -12z
m3035 -52 c0 -5 -16 -10 -36 -10 -19 0 -33 4 -30 8 7 12 66 14 66 2z m-43 -86
c-3 -3 -12 -4 -19 -1 -8 3 -5 6 6 6 11 1 17 -2 13 -5z m-2860 -46 c-3 -8 -6
-5 -6 6 -1 11 2 17 5 13 3 -3 4 -12 1 -19z m73 -38 c0 -5 -2 -10 -4 -10 -3 0
-8 5 -11 10 -3 6 -1 10 4 10 6 0 11 -4 11 -10z m2684 -266 c4 -10 1 -14 -6
-12 -15 5 -23 28 -10 28 5 0 13 -7 16 -16z m-6 -124 c-2 -7 -10 1 -17 16 -12
27 -11 28 4 12 10 -9 16 -21 13 -28z m-31 -192 c-3 -8 -6 -5 -6 6 -1 11 2 17
5 13 3 -3 4 -12 1 -19z m-1910 -1041 c-3 -8 1 -14 9 -14 8 0 13 6 10 14 -3 7
1 13 9 13 8 0 15 -2 15 -4 0 -10 -68 -85 -73 -80 -3 3 -4 -1 -3 -9 1 -17 -182
-251 -243 -312 -23 -21 -41 -48 -42 -60 0 -11 -3 -14 -6 -7 -4 10 -8 9 -18 -5
-14 -20 -18 -33 -10 -33 3 0 5 3 4 7 0 4 5 10 13 13 14 6 158 156 225 235 88
105 93 110 93 90 0 -27 15 -7 29 37 7 21 25 51 40 67 l27 29 80 -19 c43 -10
144 -32 224 -49 346 -71 381 -74 698 -74 176 1 278 -3 270 -8 -9 -7 -5 -8 12
-4 52 11 98 -38 141 -151 9 -24 -4 -33 -17 -12 -3 6 -25 20 -48 30 -33 15 -64
18 -166 18 -208 -1 -241 -14 -50 -21 188 -6 215 -13 280 -78 30 -30 39 -46 35
-61 -4 -12 2 -36 14 -59 11 -21 35 -98 55 -172 57 -217 74 -278 105 -376 17
-51 40 -127 52 -169 22 -82 134 -406 175 -512 14 -35 22 -71 19 -80 -3 -8 -3
-12 1 -8 4 4 33 -55 64 -131 68 -166 85 -198 167 -328 47 -75 65 -113 68 -146
4 -45 30 -222 37 -247 3 -17 -21 -30 -172 -94 -126 -54 -155 -63 -145 -48 6
11 -124 145 -133 136 -5 -5 -64 24 -72 35 -3 4 -25 18 -50 30 -25 12 -47 26
-50 30 -3 3 -24 18 -48 32 -47 27 -202 166 -202 180 0 5 5 6 10 3 6 -3 10 -1
10 4 0 6 -4 11 -8 11 -5 0 -17 16 -28 35 -10 19 -25 35 -32 35 -7 0 -11 4 -7
9 3 5 1 12 -5 16 -6 4 -8 11 -5 16 4 5 1 9 -6 9 -6 0 -9 8 -6 20 3 11 0 18 -6
17 -6 -1 -13 8 -15 21 -2 13 -8 20 -14 16 -6 -4 -8 -2 -5 3 4 6 0 27 -8 47 -9
20 -13 42 -9 48 5 7 2 8 -6 3 -10 -6 -12 -4 -7 8 3 8 -1 21 -10 29 -14 11 -15
10 -9 -12 6 -19 5 -21 -3 -10 -6 8 -7 26 -4 39 4 18 3 22 -7 16 -9 -6 -10 -3
-1 14 7 12 8 21 2 21 -5 0 -12 -6 -14 -12 -3 -7 -4 4 -2 25 1 20 -1 37 -7 37
-5 0 -8 6 -7 13 5 36 -2 68 -13 61 -7 -5 -9 -2 -5 9 3 9 2 17 -4 19 -15 5 -16
63 -1 60 8 -1 11 2 7 8 -3 6 -11 7 -17 4 -6 -4 -8 1 -3 16 5 16 4 20 -5 15 -9
-6 -9 -2 0 15 8 15 8 20 1 16 -10 -7 -15 17 -15 76 0 9 -3 15 -8 12 -4 -3 -8
15 -8 40 0 25 -4 47 -8 50 -5 3 -7 25 -6 50 2 26 -2 46 -7 46 -5 0 -9 10 -7
23 2 20 -5 79 -19 150 -4 23 -7 26 -19 16 -11 -9 -14 -9 -14 0 0 7 -4 10 -9 6
-5 -3 -12 -1 -16 5 -4 6 -10 8 -15 5 -12 -7 -52 33 -45 45 3 5 30 23 59 39 57
33 100 72 61 57 -41 -17 -68 -20 -60 -6 6 10 4 12 -8 7 -10 -4 -27 -3 -40 2
-12 5 -43 17 -69 26 -27 9 -48 22 -48 28 0 6 21 30 48 54 26 24 37 39 25 33
-19 -9 -22 -8 -17 5 4 10 2 15 -7 13 -8 -2 -13 3 -11 11 2 11 -3 10 -24 -4
-27 -17 -27 -17 -21 6 6 22 6 22 -20 -3 l-26 -26 -34 19 c-19 11 -40 19 -46
18 -7 -1 -19 0 -27 4 -113 43 -195 63 -183 44 3 -4 -18 3 -47 18 -28 14 -63
30 -76 35 l-25 10 35 44 c57 69 45 78 -22 16 -24 -22 -62 -48 -85 -58 -44 -20
-172 -118 -221 -170 -25 -27 -32 -30 -50 -20 -18 10 -19 9 -8 -4 10 -12 4 -38
-31 -144 -53 -157 -110 -267 -157 -304 -73 -57 -150 -87 -150 -57 0 7 14 41
31 76 17 35 32 70 33 77 1 7 5 17 9 20 4 4 7 18 7 31 0 13 4 22 9 19 22 -14
29 245 7 273 -8 11 -8 13 2 7 6 -4 12 -3 12 1 0 5 -6 15 -12 22 -11 11 -10 12
2 5 12 -6 11 -2 -3 19 -10 15 -13 27 -7 27 6 0 8 5 5 10 -4 6 -10 8 -15 5 -4
-3 -7 11 -6 31 1 20 -3 38 -8 41 -5 4 -6 1 -2 -5 3 -6 2 -13 -3 -16 -5 -3 -11
0 -14 8 -6 14 22 42 160 164 44 40 89 72 98 72 9 0 14 4 11 9 -4 5 9 21 26 36
18 15 57 48 86 74 29 25 59 46 65 46 7 0 12 7 12 15 1 8 7 14 14 12 7 -1 10 1
7 6 -3 5 9 17 27 27 42 22 80 18 257 -29 162 -43 231 -56 330 -61 l75 -4 -65
16 c-36 8 -159 39 -275 69 -115 30 -223 57 -238 60 -42 8 -119 -34 -208 -113
-41 -37 -120 -106 -174 -153 -172 -147 -234 -211 -260 -264 -13 -28 -46 -132
-71 -231 -103 -396 -99 -384 -135 -421 -19 -19 -47 -36 -67 -40 -35 -7 -82 8
-82 26 0 7 6 8 19 0 28 -14 58 -12 86 6 26 17 41 45 23 41 -18 -3 -37 -21 -31
-29 2 -5 -1 -8 -6 -8 -6 0 -11 3 -11 8 0 11 65 173 84 207 9 17 16 34 16 39 0
5 6 17 13 25 24 29 40 144 42 310 2 113 7 166 15 171 6 4 10 9 8 12 -5 8 28
43 264 282 119 122 235 240 256 264 44 47 69 52 130 26 71 -29 453 -124 612
-151 66 -11 25 4 -110 41 -74 21 -223 64 -332 97 -108 32 -213 59 -235 59 -37
0 -45 -7 -208 -177 -262 -275 -389 -402 -394 -397 -2 2 -15 -3 -29 -12 -33
-22 -36 -13 -11 32 13 25 15 32 4 19 -27 -32 -63 -108 -70 -148 -4 -20 -11
-37 -16 -37 -5 0 -7 12 -3 28 32 142 48 172 160 291 73 78 200 237 221 276 9
17 34 56 55 88 35 51 42 57 56 45 15 -11 15 -11 4 4 -11 14 -8 21 19 52 33 38
45 45 36 23z m1680 -368 c1 -209 4 -400 7 -422 4 -23 -18 44 -48 148 -55 195
-110 366 -125 393 -6 10 -3 22 9 35 10 10 40 56 66 100 68 118 74 127 82 127
5 0 9 -171 9 -381z m135 111 c40 -27 66 -52 65 -62 -1 -13 -5 -14 -19 -7 -23
12 -23 20 0 12 24 -9 16 -2 -63 57 -84 62 -76 62 17 0z m-2557 14 c-16 -14
-39 -30 -50 -36 -19 -10 -19 -10 -5 7 14 18 70 55 80 55 3 -1 -8 -12 -25 -26z
m2550 -116 c37 -40 78 -95 92 -122 30 -59 53 -191 53 -301 0 -134 -42 -386
-83 -502 l-11 -33 -14 33 c-7 17 -42 118 -77 223 -54 159 -64 199 -60 240 9
101 15 234 15 382 0 84 4 152 9 152 5 0 39 -33 76 -72z m-2515 20 c0 -73 -13
-268 -17 -264 -2 2 -15 -6 -28 -18 -13 -12 -34 -27 -47 -33 -54 -26 -97 -43
-106 -43 -10 0 -7 70 4 100 3 8 12 39 20 68 8 29 23 70 33 90 18 36 118 142
134 142 4 0 7 -19 7 -42z m-131 29 c-2 -1 -13 -9 -24 -17 -19 -14 -19 -14 -6
3 7 9 18 17 24 17 6 0 8 -1 6 -3z m2821 -84 c0 -2 -5 -1 -10 2 -6 4 -18 1 -26
-6 -13 -11 -18 -10 -27 6 -6 11 -12 30 -13 42 -1 20 1 20 38 -9 21 -17 38 -33
38 -35z m20 -23 c0 -14 -18 -21 -25 -10 -4 6 -11 7 -17 4 -6 -4 -8 -3 -5 2 7
12 47 15 47 4z m80 -35 c13 -14 19 -25 14 -25 -8 1 -50 50 -41 50 2 0 14 -11
27 -25z m-45 -5 c3 -5 1 -10 -4 -10 -6 0 -11 5 -11 10 0 6 2 10 4 10 3 0 8 -4
11 -10z m62 -112 c-3 -8 -6 -5 -6 6 -1 11 2 17 5 13 3 -3 4 -12 1 -19z m-3407
-82 c0 -2 -7 -7 -16 -10 -8 -3 -12 -2 -9 4 6 10 25 14 25 6z m4159 -160 c10
-12 8 -13 -8 -9 -12 3 -18 9 -15 14 7 12 10 11 23 -5z m-3412 -58 c-3 -7 -5
-2 -5 12 0 14 2 19 5 13 2 -7 2 -19 0 -25z m42 -332 c-1 -31 -1 -31 -8 4 -4
20 -11 42 -15 50 -4 8 0 6 8 -4 9 -11 15 -34 15 -50z m4209 -21 c-3 -3 -9 2
-12 12 -6 14 -5 15 5 6 7 -7 10 -15 7 -18z m172 -67 c0 -5 -11 -1 -25 8 -14 9
-25 18 -25 20 0 2 11 -2 25 -8 14 -6 25 -15 25 -20z m110 -42 c0 -2 -7 -7 -16
-10 -8 -3 -12 -2 -9 4 6 10 25 14 25 6z m-4550 -43 c-11 -17 -11 -17 -6 0 3
10 6 24 7 30 0 9 2 9 5 0 3 -7 0 -20 -6 -30z m558 -43 c-5 -17 -14 -30 -20
-30 -5 0 -6 6 -1 13 4 6 8 17 9 22 0 6 2 16 2 23 1 7 6 11 11 7 6 -3 6 -17 -1
-35z m-568 10 c0 -5 -5 -10 -11 -10 -5 0 -7 5 -4 10 3 6 8 10 11 10 2 0 4 -4
4 -10z m4715 0 c3 -6 -1 -7 -9 -4 -18 7 -21 14 -7 14 6 0 13 -4 16 -10z
m-4455 -35 c0 -17 -2 -18 -25 -9 -13 5 -14 8 -3 15 19 13 28 11 28 -6z m1197
-31 c-3 -3 -12 -4 -19 -1 -8 3 -5 6 6 6 11 1 17 -2 13 -5z m33 -68 c0 -24 -3
-58 -6 -75 -6 -31 -8 -32 -53 -29 l-46 3 -3 41 c-3 40 -1 43 45 72 26 17 51
31 56 31 4 1 7 -19 7 -43z m-20 -270 c-6 -60 -13 -113 -16 -118 -8 -12 -68
-36 -174 -68 -52 -15 -102 -31 -111 -35 -14 -5 -14 4 1 102 22 138 40 223 47
223 3 0 17 -8 31 -19 35 -24 148 -81 162 -81 19 0 0 19 -53 54 -29 18 -60 42
-69 52 -16 18 -14 19 65 19 45 1 91 6 102 12 17 10 20 9 23 -10 2 -12 -1 -71
-8 -131z m1738 -421 c38 -19 75 -42 82 -50 6 -8 -16 -1 -49 15 -71 35 -84 36
-102 13 -11 -15 -11 -16 0 -6 13 11 19 11 59 -3 15 -5 14 -7 -5 -14 -42 -17
-55 -53 -54 -149 1 -104 11 -158 52 -263 65 -170 86 -210 177 -331 45 -60 107
-101 145 -95 66 9 75 163 22 372 -5 19 -4 19 6 -1 7 -13 15 -23 20 -23 16 0
31 -70 36 -172 4 -79 3 -108 -6 -108 -7 0 -9 -9 -5 -24 3 -14 1 -27 -6 -31 -9
-5 -10 -1 -5 16 l7 24 -17 -24 c-13 -17 -15 -25 -6 -30 9 -6 7 -12 -5 -22 -13
-10 -18 -11 -21 -2 -2 7 -10 10 -16 7 -34 -12 -203 122 -211 167 -3 22 -37 69
-46 64 -20 -12 -116 173 -146 282 -10 36 -18 115 -21 210 l-5 151 -99 -46
c-55 -25 -103 -42 -107 -37 -4 4 -1 10 5 12 27 10 57 41 58 62 1 16 -2 20 -14
16 -14 -5 -14 -4 -1 9 24 25 91 45 151 45 45 1 70 -6 127 -34z m-268 -219 c0
-2 -7 -7 -16 -10 -8 -3 -12 -2 -9 4 6 10 25 14 25 6z m386 -211 c-3 -8 -8 -62
-12 -120 -4 -58 -11 -105 -16 -105 -6 0 -7 20 -4 48 3 26 8 80 12 120 3 39 11
72 16 72 6 0 8 -7 4 -15z m203 -210 l0 -20 -9 20 c-5 11 -9 27 -9 35 -1 13 0
13 9 0 5 -8 9 -24 9 -35z m-3374 -1025 c3 -6 -1 -7 -9 -4 -18 7 -21 14 -7 14
6 0 13 -4 16 -10z"/>
<path d="M6256 6561 c-3 -5 1 -11 9 -14 9 -4 12 -1 8 9 -6 16 -10 17 -17 5z"/>
<path d="M4443 6178 c2 -7 0 -22 -6 -33 -10 -20 -10 -20 12 0 13 11 18 21 12
23 -6 2 -9 8 -5 13 3 5 0 9 -6 9 -7 0 -10 -6 -7 -12z"/>
<path d="M4378 6133 c6 -2 18 -2 25 0 6 3 1 5 -13 5 -14 0 -19 -2 -12 -5z"/>
<path d="M4450 6121 c0 -6 6 -11 13 -11 8 0 7 -4 -3 -10 -9 -6 -10 -10 -3 -10
19 0 24 17 8 30 -10 9 -15 9 -15 1z"/>
<path d="M4366 6104 c-9 -22 -8 -24 9 -18 18 7 20 -17 3 -34 -9 -9 -9 -12 -1
-12 18 0 25 37 13 60 -13 24 -16 25 -24 4z"/>
<path d="M4510 6100 c13 -8 12 -13 -7 -32 -12 -12 -26 -18 -30 -14 -4 5 -2 11
5 13 6 3 12 9 12 14 0 5 -11 2 -25 -7 -23 -15 -25 -15 -25 1 0 15 -3 13 -18
-6 -20 -26 -44 -100 -36 -108 9 -9 22 21 17 38 -4 14 -3 14 6 1 5 -8 14 -11
18 -6 4 5 2 11 -4 13 -15 5 -17 39 -4 47 9 6 25 -31 21 -49 -1 -5 -3 -16 -3
-22 0 -7 -6 -13 -14 -13 -7 0 -13 -10 -13 -22 -1 -89 -9 -150 -20 -143 -13 8
-40 -6 -40 -21 0 -8 5 -14 10 -14 6 0 10 4 10 9 0 6 9 9 21 8 19 -1 19 -2 3
-14 -10 -7 -23 -13 -29 -13 -7 0 -12 -7 -12 -15 0 -11 4 -12 11 -5 5 5 16 10
23 10 15 0 18 -26 3 -35 -6 -3 -7 1 -4 9 7 19 -11 21 -23 4 -11 -18 -10 -32 2
-41 5 -4 -1 -6 -15 -5 -14 2 -29 8 -33 13 -5 6 -6 -6 -3 -25 6 -32 5 -33 -8
-15 -13 18 -14 16 -13 -23 1 -23 -1 -42 -5 -42 -5 0 -8 8 -8 18 -1 22 -36 -64
-88 -214 -66 -190 -56 -276 39 -358 82 -69 295 -133 420 -124 59 5 82 14 213
83 158 84 217 132 246 198 23 52 16 99 -39 272 -22 66 -47 147 -57 180 -10 33
-20 52 -22 43 -2 -9 2 -26 7 -37 16 -29 13 -39 -4 -17 -8 11 -15 28 -15 38 0
10 -4 18 -9 18 -13 0 -19 -58 -7 -71 8 -9 8 -10 -2 -5 -7 4 -19 22 -27 39
l-14 32 5 -32 c2 -18 0 -33 -5 -33 -13 0 -21 27 -15 45 4 8 1 15 -6 15 -6 0
-8 -6 -5 -12 4 -7 -1 -4 -9 6 -20 25 -20 33 2 39 16 4 16 5 -1 6 -10 0 -16 5
-13 10 3 5 -2 8 -11 7 -16 -1 -18 6 -14 59 1 8 6 15 12 15 7 0 9 -9 6 -21 -5
-17 -3 -19 6 -10 9 9 9 16 -1 29 -7 9 -19 32 -28 51 -18 40 -23 38 -17 -6 3
-20 9 -30 16 -26 7 4 8 0 4 -11 -4 -10 -7 -22 -7 -27 0 -5 -4 -9 -10 -9 -5 0
-7 7 -4 15 4 8 2 15 -4 15 -6 0 -13 -6 -15 -12 -4 -10 -6 -10 -6 0 -1 14 -31
17 -31 2 0 -5 5 -10 12 -10 6 0 8 -3 5 -6 -4 -4 -14 -1 -24 7 -15 12 -16 12
-10 -4 4 -11 1 -20 -7 -23 -11 -4 -12 -13 -6 -36 9 -29 8 -30 -18 -24 -26 6
-26 6 -7 -9 17 -13 18 -18 7 -36 -7 -11 -10 -29 -7 -40 5 -15 3 -18 -12 -12
-15 5 -16 3 -5 -8 6 -7 12 -22 12 -33 0 -16 3 -17 9 -8 6 11 10 10 15 -4 6
-16 9 -16 17 -4 9 12 9 11 4 -5 -4 -11 -9 -29 -11 -40 -4 -16 -3 -17 3 -3 7
13 15 9 46 -28 35 -40 40 -62 8 -31 -10 9 -10 7 0 -11 8 -12 22 -25 31 -28 10
-3 18 -10 18 -16 0 -6 -6 -6 -15 2 -9 8 -15 9 -15 2 0 -6 5 -14 12 -18 8 -5 6
-10 -5 -19 -11 -7 -13 -16 -6 -26 7 -11 9 -11 9 4 0 10 4 16 10 12 5 -3 7 -13
4 -23 -5 -14 -4 -14 4 -3 6 8 8 20 6 26 -3 7 4 15 15 18 23 6 37 -29 19 -50
-8 -10 -4 -12 23 -7 19 4 31 4 27 -1 -11 -12 -108 -13 -108 -1 0 8 -3 8 -8 0
-15 -23 -50 -34 -75 -25 -14 6 -27 8 -29 6 -8 -9 -117 -14 -122 -6 -3 4 -17 7
-31 6 -14 -2 -25 2 -25 8 0 7 -5 5 -10 -3 -8 -12 -10 -10 -10 8 0 14 -4 21
-11 16 -8 -4 -8 -1 -1 12 5 11 7 26 5 34 -4 12 -3 12 5 1 6 -9 12 -10 16 -3 4
6 12 10 19 8 7 -1 9 -1 5 1 -5 3 -8 11 -8 19 0 8 -7 14 -15 14 -8 0 -15 4 -15
9 0 14 28 33 40 26 5 -3 10 -1 10 4 0 6 -4 11 -10 11 -13 0 0 32 19 48 14 12
14 13 -2 8 -12 -4 -17 -2 -15 6 3 7 15 15 29 19 l24 7 -25 2 c-19 2 -20 4 -7
7 14 4 17 11 12 33 -4 17 -2 31 5 35 9 5 10 1 5 -14 -4 -13 -2 -21 6 -21 15 0
38 30 39 50 0 12 -2 13 -9 1 -11 -17 -34 -4 -27 15 3 8 2 14 -3 14 -10 0 -7
93 3 109 4 6 1 11 -6 11 -11 0 -11 2 0 9 10 6 11 18 3 51 -5 24 -7 48 -4 54 4
5 -1 7 -12 2 -15 -5 -16 -4 -5 9 7 8 9 15 5 15 -5 0 0 9 10 20 18 20 18 21 -1
15 -17 -6 -16 -4 4 13 15 14 19 23 11 28 -8 5 -7 9 2 16 11 8 10 9 -3 4 -10
-3 -25 -3 -33 0 -21 9 -19 27 3 20 14 -5 13 -3 -3 9 -11 9 -25 13 -33 10 -7
-2 -10 0 -7 5 3 6 1 10 -4 10 -6 0 -11 9 -11 20 0 12 -7 20 -17 20 -15 0 -16
-2 -3 -10z m20 -40 c0 -5 -5 -10 -11 -10 -5 0 -7 5 -4 10 3 6 8 10 11 10 2 0
4 -4 4 -10z m-45 -30 c-3 -5 -12 -10 -18 -10 -7 0 -6 4 3 10 19 12 23 12 15 0z
m75 -9 c0 -4 -9 -7 -20 -7 -20 0 -25 7 -14 19 7 7 34 -2 34 -12z m-82 -56
c-16 -13 -28 -31 -28 -39 0 -8 -5 -18 -10 -21 -6 -4 -8 -11 -5 -16 3 -5 -1 -6
-11 -2 -15 5 -15 7 0 15 9 5 16 16 16 26 0 9 12 26 28 39 36 30 44 29 10 -2z
m107 15 c3 -5 -3 -10 -14 -10 -12 0 -21 5 -21 10 0 6 6 10 14 10 8 0 18 -4 21
-10z m-75 -30 c0 -5 -5 -10 -11 -10 -5 0 -7 5 -4 10 3 6 8 10 11 10 2 0 4 -4
4 -10z m63 -16 c-7 -3 -9 -13 -6 -22 5 -13 3 -14 -7 -5 -14 13 -5 33 13 32 9
0 9 -2 0 -5z m-122 -72 c-14 -27 -14 -32 4 -32 12 0 12 -3 -2 -18 -10 -11 -22
-16 -28 -14 -5 3 -4 7 3 10 7 2 12 8 12 13 0 4 -8 5 -17 2 -17 -6 -17 -6 -1
10 9 9 20 26 23 38 4 11 9 18 12 16 2 -3 0 -14 -6 -25z m144 -2 c3 -5 2 -10
-4 -10 -5 0 -13 5 -16 10 -3 6 -2 10 4 10 5 0 13 -4 16 -10z m-25 -124 c-14
-14 -22 -2 -14 18 5 14 9 15 15 4 4 -7 4 -17 -1 -22z m269 -14 c7 -14 8 -22 1
-22 -5 0 -10 6 -10 14 0 7 -7 19 -15 26 -8 7 -15 17 -15 22 0 13 24 -12 39
-40z m-55 -4 c6 -28 2 -48 -8 -37 -8 10 -15 69 -7 69 5 0 11 -14 15 -32z
m-191 7 c-3 -9 -8 -14 -10 -11 -3 3 -2 9 2 15 9 16 15 13 8 -4z m214 -27 c-3
-7 -5 -2 -5 12 0 14 2 19 5 13 2 -7 2 -19 0 -25z m-457 -38 c0 -5 -2 -10 -4
-10 -3 0 -8 5 -11 10 -3 6 -1 10 4 10 6 0 11 -4 11 -10z m484 -6 c9 -24 7 -27
-9 -10 -17 17 -19 26 -6 26 5 0 12 -7 15 -16z m46 -9 c6 -8 10 -20 7 -27 -4
-8 -6 -7 -6 4 -1 9 -9 22 -18 27 -10 6 -13 11 -7 11 6 0 17 -7 24 -15z m-119
-20 c11 6 11 5 2 -5 -15 -16 -43 -6 -43 17 0 15 1 15 13 -2 9 -11 19 -15 28
-10z m9 -35 c0 -5 -5 -10 -11 -10 -5 0 -7 5 -4 10 3 6 8 10 11 10 2 0 4 -4 4
-10z m248 -25 c-3 -3 -9 2 -12 12 -6 14 -5 15 5 6 7 -7 10 -15 7 -18z m-168
-105 c0 -5 -2 -10 -4 -10 -3 0 -8 5 -11 10 -3 6 -1 10 4 10 6 0 11 -4 11 -10z"/>
<path d="M4552 6090 c7 -11 20 -20 30 -20 9 0 19 -5 21 -10 3 -6 4 -5 3 2 -1
7 -17 20 -34 30 -31 17 -32 17 -20 -2z"/>
<path d="M4710 6080 c0 -5 -7 -10 -15 -10 -8 0 -15 -5 -15 -10 0 -7 6 -7 20 0
18 10 28 30 15 30 -3 0 -5 -4 -5 -10z"/>
<path d="M4730 6060 c0 -5 5 -10 11 -10 5 0 7 5 4 10 -3 6 -8 10 -11 10 -2 0
-4 -4 -4 -10z"/>
<path d="M4786 6048 c4 -11 1 -18 -6 -18 -10 0 -10 -3 0 -15 6 -8 10 -22 7
-32 -4 -16 -6 -15 -12 5 -4 12 -14 22 -22 22 -8 0 -12 4 -9 9 3 5 -1 12 -9 15
-12 4 -14 0 -9 -19 4 -15 2 -25 -5 -25 -6 0 -11 7 -11 15 0 8 -5 15 -10 15 -7
0 -7 -6 0 -20 12 -23 21 -25 38 -8 10 10 16 7 28 -10 20 -29 38 -18 30 20 -5
26 -4 29 9 18 26 -21 24 -7 -2 20 -16 17 -22 20 -17 8z"/>
<path d="M5495 6011 c7 -12 85 -10 85 1 0 4 -21 8 -46 8 -26 0 -43 -4 -39 -9z"/>
<path d="M4687 5974 c5 -13 3 -15 -7 -9 -8 5 -11 4 -6 -3 4 -6 14 -8 23 -5 11
4 14 3 9 -5 -4 -7 -3 -12 3 -12 6 0 8 -7 5 -15 -4 -8 -2 -15 4 -15 5 0 7 -11
5 -25 -4 -19 0 -25 21 -31 14 -3 26 -10 26 -15 0 -4 9 -13 20 -19 16 -9 20 -8
20 5 0 9 -4 13 -10 10 -5 -3 -10 3 -10 15 0 12 -4 18 -10 15 -6 -3 -7 1 -4 10
4 9 -1 22 -12 31 -13 10 -14 14 -4 11 8 -2 23 -19 33 -38 14 -27 17 -29 13 -9
-3 14 -6 30 -6 37 0 7 -12 19 -27 27 -16 8 -27 17 -25 20 7 17 0 27 -14 22 -8
-3 -24 -1 -34 4 -16 9 -18 8 -13 -6z m70 -99 c0 -11 -4 -12 -14 -4 -7 6 -13
13 -13 15 0 2 6 4 13 4 8 0 14 -7 14 -15z"/>
<path d="M4810 5980 c0 -5 5 -10 11 -10 5 0 7 5 4 10 -3 6 -8 10 -11 10 -2 0
-4 -4 -4 -10z"/>
<path d="M4605 5931 c-7 -12 12 -24 25 -16 6 3 10 2 10 -4 0 -5 -8 -15 -17
-20 -16 -9 -16 -12 -3 -20 12 -8 17 -5 22 15 4 14 4 32 1 40 -6 16 -29 19 -38
5z"/>
<path d="M4824 5920 c0 -11 4 -20 8 -20 4 0 8 9 8 20 0 11 -4 20 -8 20 -4 0
-8 -9 -8 -20z"/>
<path d="M4675 5871 c-3 -5 -1 -12 5 -16 5 -3 10 1 10 9 0 18 -6 21 -15 7z"/>
<path d="M3321 5844 c0 -11 3 -14 6 -6 3 7 2 16 -1 19 -3 4 -6 -2 -5 -13z"/>
<path d="M3275 5840 c-8 -13 9 -20 24 -11 10 6 9 10 -3 14 -8 3 -18 2 -21 -3z"/>
<path d="M4628 5815 c-2 -22 0 -34 6 -32 13 4 18 55 6 62 -4 3 -10 -11 -12
-30z"/>
<path d="M4700 5838 c0 -4 4 -8 8 -8 5 0 8 -22 7 -50 -2 -27 2 -50 7 -50 5 0
6 9 3 20 -3 11 -2 20 2 20 8 0 9 25 4 66 -1 12 -31 15 -31 2z"/>
<path d="M6007 5829 c7 -7 15 -10 18 -7 3 3 -2 9 -12 12 -14 6 -15 5 -6 -5z"/>
<path d="M6000 5750 c0 -6 7 -13 15 -17 24 -9 27 1 5 15 -13 8 -20 8 -20 2z"/>
<path d="M4641 5741 c0 -8 -9 -20 -18 -27 -10 -7 -13 -13 -8 -14 21 0 37 18
32 36 -3 11 -5 13 -6 5z"/>
<path d="M5959 5734 c5 -3 7 -13 4 -24 -4 -15 -1 -18 16 -13 14 3 23 0 27 -11
3 -9 10 -13 15 -10 12 7 -15 34 -35 34 -9 0 -15 5 -13 11 1 6 -4 13 -11 15 -7
1 -8 0 -3 -2z"/>
<path d="M4690 5676 c0 -2 7 -7 16 -10 8 -3 12 -2 9 4 -6 10 -25 14 -25 6z"/>
<path d="M3411 5583 c-1 -12 4 -25 10 -28 14 -9 27 4 13 13 -6 4 -14 14 -17
22 -4 10 -6 8 -6 -7z"/>
<path d="M5986 5565 c-3 -8 -1 -15 4 -15 13 0 22 18 11 24 -5 3 -11 -1 -15 -9z"/>
<path d="M4655 5540 c-3 -6 1 -7 9 -4 18 7 21 14 7 14 -6 0 -13 -4 -16 -10z"/>
<path d="M4717 5519 c4 -13 8 -18 11 -10 2 7 -1 18 -6 23 -8 8 -9 4 -5 -13z"/>
<path d="M3410 5400 c0 -5 5 -10 10 -10 6 0 10 5 10 10 0 6 -4 10 -10 10 -5 0
-10 -4 -10 -10z"/>
<path d="M4780 5400 c-12 -7 -12 -10 -1 -10 8 0 11 -6 7 -16 -3 -8 -2 -12 3
-9 7 4 13 47 6 45 0 0 -7 -5 -15 -10z"/>
<path d="M4867 5336 c-4 -10 -5 -21 -2 -24 9 -9 17 6 13 25 -3 17 -4 17 -11
-1z"/>
<path d="M5985 5320 c3 -5 8 -10 11 -10 2 0 4 5 4 10 0 6 -5 10 -11 10 -5 0
-7 -4 -4 -10z"/>
<path d="M4765 5290 c-3 -5 -1 -10 4 -10 6 0 11 5 11 10 0 6 -2 10 -4 10 -3 0
-8 -4 -11 -10z"/>
<path d="M3410 5229 c0 -5 5 -7 10 -4 6 3 10 8 10 11 0 2 -4 4 -10 4 -5 0 -10
-5 -10 -11z"/>
<path d="M5500 5109 c-19 -4 -48 -14 -64 -23 l-29 -15 29 -6 c130 -29 171 -56
203 -133 7 -18 19 -32 25 -32 19 0 34 34 31 73 -4 76 -115 153 -195 136z"/>
<path d="M5550 4922 c-173 -108 -282 -147 -607 -218 -151 -32 -284 -49 -503
-64 -204 -15 -329 -8 -454 25 -110 28 -93 10 31 -35 171 -61 334 -73 615 -44
284 28 563 96 720 174 67 34 248 166 248 181 0 12 1 13 -50 -19z"/>
<path d="M5790 4660 c0 -5 5 -10 11 -10 5 0 7 5 4 10 -3 6 -8 10 -11 10 -2 0
-4 -4 -4 -10z"/>
<path d="M5715 4541 c-3 -5 -2 -12 3 -15 5 -3 9 1 9 9 0 17 -3 19 -12 6z"/>
<path d="M5685 4456 c-23 -25 -26 -40 -4 -19 12 12 21 24 18 27 -2 2 -9 -1
-14 -8z"/>
<path d="M5627 4399 c4 -13 8 -18 11 -10 2 7 -1 18 -6 23 -8 8 -9 4 -5 -13z"/>
<path d="M5395 4110 c-3 -5 1 -10 10 -10 9 0 13 5 10 10 -3 6 -8 10 -10 10 -2
0 -7 -4 -10 -10z"/>
<path d="M6455 5909 c-4 -6 -5 -12 -2 -15 2 -3 7 2 10 11 7 17 1 20 -8 4z"/>
<path d="M6442 5865 c4 -4 1 -20 -7 -36 -20 -38 -19 -59 1 -29 10 14 23 30 31
37 12 10 11 13 -9 24 -13 6 -20 8 -16 4z"/>
<path d="M6404 5763 c4 -7 3 -13 -2 -13 -6 0 -12 -6 -15 -13 -3 -7 3 -13 12
-13 18 0 22 29 6 43 -4 5 -5 2 -1 -4z"/>
<path d="M6367 5695 c-4 -11 -10 -27 -13 -35 -3 -8 1 -5 11 8 9 12 15 28 13
34 -3 7 -7 4 -11 -7z"/>
<path d="M4050 4069 c0 -5 5 -7 10 -4 6 3 10 8 10 11 0 2 -4 4 -10 4 -5 0 -10
-5 -10 -11z"/>
<path d="M5470 3915 c7 -8 20 -15 28 -15 13 0 12 3 -4 15 -25 19 -40 19 -24 0z"/>
<path d="M4170 3897 c0 -19 16 -31 24 -18 3 5 -1 14 -9 21 -12 10 -15 10 -15
-3z"/>
<path d="M4305 3680 c10 -11 20 -20 23 -20 3 0 -3 9 -13 20 -10 11 -20 20 -23
20 -3 0 3 -9 13 -20z"/>
<path d="M5130 3660 c-41 -5 -20 -7 85 -9 216 -4 278 -15 301 -53 6 -10 5 -10
-7 -1 -11 9 -28 10 -60 4 l-44 -9 50 -2 c42 -2 46 -3 25 -11 -23 -8 -22 -8 7
-6 18 2 30 0 28 -4 -3 -4 2 -10 11 -13 8 -3 12 -10 9 -16 -3 -5 1 -10 10 -10
14 0 13 3 -2 27 -10 15 -12 24 -6 20 19 -12 60 -86 73 -132 6 -22 29 -110 51
-195 22 -85 56 -202 74 -260 32 -99 68 -224 102 -350 27 -103 45 -161 49 -158
2 3 -1 20 -6 39 -9 31 -8 32 5 15 21 -28 19 -12 -5 34 -24 47 -25 57 -4 39 11
-9 9 -1 -6 26 -25 45 -86 258 -190 659 -21 84 -47 174 -58 200 -21 55 -102
142 -151 162 -35 15 -233 17 -341 4z"/>
<path d="M3655 3530 c-10 -11 -13 -20 -7 -20 6 0 16 9 22 20 6 11 9 20 7 20
-2 0 -12 -9 -22 -20z"/>
<path d="M5469 3537 c4 -4 18 -3 32 2 23 9 22 9 -8 8 -18 -1 -28 -6 -24 -10z"/>
<path d="M3925 3320 c10 -11 20 -20 23 -20 3 0 -3 9 -13 20 -10 11 -20 20 -23
20 -3 0 3 -9 13 -20z"/>
<path d="M5756 3080 c7 -28 12 -35 18 -29 2 2 -2 15 -10 29 l-15 25 7 -25z"/>
<path d="M5770 3032 c0 -7 6 -27 13 -45 8 -18 22 -66 32 -107 10 -41 20 -70
22 -64 4 13 -41 186 -56 211 -6 10 -11 12 -11 5z"/>
<path d="M5895 2658 c4 -13 11 -27 16 -33 5 -5 4 5 -2 23 -12 36 -24 44 -14
10z"/>
<path d="M6006 2357 c3 -10 9 -15 12 -12 3 3 0 11 -7 18 -10 9 -11 8 -5 -6z"/>
<path d="M6051 2224 c0 -11 3 -14 6 -6 3 7 2 16 -1 19 -3 4 -6 -2 -5 -13z"/>
<path d="M6100 2107 c0 -11 49 -107 55 -107 5 0 -35 93 -46 105 -5 5 -9 6 -9
2z"/>
<path d="M5930 2866 c0 -2 8 -10 18 -17 15 -13 16 -12 3 4 -13 16 -21 21 -21
13z"/>
<path d="M6003 3745 c0 -8 7 -15 14 -15 8 0 11 -5 7 -12 -5 -7 -3 -8 5 -4 9 6
8 13 -5 27 -21 23 -21 23 -21 4z"/>
<path d="M6726 1262 c6 -4 15 -17 19 -30 4 -13 9 -22 11 -19 9 8 -16 57 -28
57 -9 0 -10 -3 -2 -8z"/>
<path d="M4028 9864 c-68 -15 -145 -43 -118 -44 8 0 47 9 85 21 56 17 106 22
255 26 102 2 190 6 195 8 6 2 -71 3 -170 3 -118 0 -203 -5 -247 -14z"/>
<path d="M4330 3236 c0 -2 8 -10 18 -17 15 -13 16 -12 3 4 -13 16 -21 21 -21
13z"/>
<path d="M4283 3023 c-12 -15 -19 -32 -15 -38 4 -6 8 -2 10 8 3 14 7 15 17 7
11 -9 12 -7 8 11 -4 15 -3 20 5 15 8 -5 10 -2 6 8 -8 20 -5 21 -31 -11z"/>
<path d="M4265 2960 c3 -5 11 -10 16 -10 6 0 7 5 4 10 -3 6 -11 10 -16 10 -6
0 -7 -4 -4 -10z"/>
<path d="M3596 2315 c-4 -19 -10 -35 -14 -35 -4 0 -8 -11 -8 -25 -2 -22 15
-38 17 -17 4 34 12 68 20 83 11 22 11 29 0 29 -5 0 -12 -16 -15 -35z"/>
<path d="M3676 2223 c-6 -14 -5 -15 5 -6 7 7 10 15 7 18 -3 3 -9 -2 -12 -12z"/>
<path d="M3558 2192 c-7 -18 -16 -32 -20 -32 -4 0 -8 -7 -8 -15 0 -8 3 -15 8
-15 9 0 44 82 37 89 -3 2 -11 -10 -17 -27z"/>
<path d="M3696 2202 c-13 -21 -25 -62 -18 -62 9 0 34 62 28 68 -2 2 -7 -1 -10
-6z"/>
<path d="M3610 2140 c0 -5 5 -10 11 -10 5 0 7 5 4 10 -3 6 -8 10 -11 10 -2 0
-4 -4 -4 -10z"/>
<path d="M3667 2123 c-4 -3 -7 -13 -7 -22 1 -13 3 -13 11 2 11 19 8 33 -4 20z"/>
<path d="M3605 2099 c-4 -6 -5 -12 -2 -15 2 -3 7 2 10 11 7 17 1 20 -8 4z"/>
<path d="M3569 2088 c-1 -7 -1 -16 0 -20 0 -5 -4 -8 -11 -8 -6 0 -8 -3 -5 -7
4 -3 3 -11 -2 -17 -5 -6 -22 -49 -39 -96 -16 -47 -43 -123 -60 -170 -18 -47
-25 -76 -17 -66 8 11 15 26 15 34 0 7 4 10 10 7 6 -3 7 1 4 10 -4 8 -1 22 6
30 7 8 9 15 4 15 -5 0 -4 4 2 8 10 7 66 155 68 182 0 8 3 17 6 20 16 16 38 80
30 85 -6 3 -11 0 -11 -7z"/>
<path d="M3586 2054 c-5 -14 -4 -15 9 -4 17 14 19 20 6 20 -5 0 -12 -7 -15
-16z"/>
<path d="M3570 2022 c0 -7 7 -20 15 -28 19 -20 20 -4 0 22 -9 12 -14 14 -15 6z"/>
<path d="M3637 2023 c-4 -3 -7 -13 -7 -22 1 -13 3 -13 11 2 11 19 8 33 -4 20z"/>
<path d="M3560 1940 c-9 -6 -10 -10 -3 -10 6 0 15 5 18 10 8 12 4 12 -15 0z"/>
<path d="M3600 1920 c-6 -11 -8 -20 -6 -20 3 0 10 9 16 20 6 11 8 20 6 20 -3
0 -10 -9 -16 -20z"/>
<path d="M3430 1830 c0 -5 4 -10 9 -10 6 0 13 5 16 10 3 6 -1 10 -9 10 -9 0
-16 -4 -16 -10z"/>
<path d="M3354 1729 c-19 -22 -19 -22 3 -10 24 12 39 31 25 31 -5 0 -17 -10
-28 -21z"/>
<path d="M3355 1700 c-3 -5 -1 -10 4 -10 6 0 11 5 11 10 0 6 -2 10 -4 10 -3 0
-8 -4 -11 -10z"/>
<path d="M3326 1683 c-6 -14 -5 -15 5 -6 7 7 10 15 7 18 -3 3 -9 -2 -12 -12z"/>
<path d="M3407 1660 c-3 -11 -2 -20 3 -20 4 0 10 9 13 20 3 11 2 20 -3 20 -4
0 -10 -9 -13 -20z"/>
<path d="M3346 1643 c-6 -14 -5 -15 5 -6 7 7 10 15 7 18 -3 3 -9 -2 -12 -12z"/>
<path d="M3306 1624 c-9 -8 -13 -21 -9 -27 4 -7 8 -6 11 3 3 8 9 21 15 28 14
17 1 15 -17 -4z"/>
<path d="M4463 1625 c0 -8 4 -12 9 -9 4 3 8 9 8 15 0 5 -4 9 -8 9 -5 0 -9 -7
-9 -15z"/>
<path d="M3266 1562 c-3 -5 1 -9 9 -9 8 0 15 4 15 9 0 4 -4 8 -9 8 -6 0 -12
-4 -15 -8z"/>
<path d="M4331 1483 c-1 -7 -16 -20 -33 -29 -35 -18 -50 -33 -42 -46 3 -4 13
1 22 10 10 10 29 25 41 34 13 9 21 22 18 30 -4 9 -6 9 -6 1z"/>
<path d="M3778 1133 c-10 -2 -18 -9 -18 -14 0 -6 8 -5 20 1 11 6 20 13 20 15
0 3 -1 4 -2 4 -2 -1 -11 -3 -20 -6z"/>
<path d="M2946 853 c-6 -14 -5 -15 5 -6 7 7 10 15 7 18 -3 3 -9 -2 -12 -12z"/>
<path d="M3057 820 c-3 -11 -1 -20 4 -20 5 0 9 9 9 20 0 11 -2 20 -4 20 -2 0
-6 -9 -9 -20z"/>
<path d="M2976 815 c-9 -26 -7 -32 5 -12 6 10 9 21 6 23 -2 3 -7 -2 -11 -11z"/>
<path d="M2987 733 c-14 -43 -35 -102 -46 -131 -12 -29 -21 -58 -20 -65 0 -16
42 78 58 133 7 25 20 65 27 89 8 25 12 46 10 49 -3 2 -16 -31 -29 -75z"/>
<path d="M2950 761 c-12 -24 -13 -34 -1 -27 9 6 22 46 15 46 -2 0 -8 -9 -14
-19z"/>
<path d="M3035 720 c-4 -17 -5 -34 -2 -36 2 -3 7 10 11 27 8 42 0 50 -9 9z"/>
<path d="M2809 708 c-7 -13 -49 -79 -94 -148 -45 -69 -121 -194 -169 -278 -48
-83 -92 -150 -97 -147 -5 4 -6 -2 -2 -11 5 -13 3 -15 -7 -9 -8 5 -11 4 -6 -3
9 -14 -25 -83 -37 -75 -6 3 -7 1 -3 -5 11 -19 34 -2 55 41 11 23 27 53 35 67
9 14 41 70 72 125 31 55 61 103 66 106 5 3 10 12 12 20 2 18 48 96 107 184 48
71 93 155 85 155 -3 0 -11 -10 -17 -22z"/>
<path d="M2890 633 c-23 -49 -59 -133 -80 -188 -21 -55 -61 -157 -89 -228 -46
-118 -71 -199 -58 -187 3 3 22 49 41 103 19 54 54 146 77 205 23 59 53 136 66
172 14 36 29 70 33 75 10 13 60 135 55 135 -2 0 -23 -39 -45 -87z"/>
<path d="M2815 648 c-46 -76 -53 -90 -28 -61 21 26 76 123 70 123 -2 0 -21
-28 -42 -62z"/>
<path d="M2982 523 c-60 -219 -124 -455 -129 -483 -4 -17 -2 -22 5 -15 6 6 36
109 67 230 68 262 68 262 93 348 11 37 16 67 12 67 -4 0 -25 -66 -48 -147z"/>
<path d="M3396 625 c-9 -26 -7 -32 5 -12 6 10 9 21 6 23 -2 3 -7 -2 -11 -11z"/>
<path d="M7010 611 c0 -6 4 -13 10 -16 6 -3 7 1 4 9 -7 18 -14 21 -14 7z"/>
<path d="M7030 571 c0 -5 5 -13 10 -16 6 -3 10 -2 10 4 0 5 -4 13 -10 16 -5 3
-10 2 -10 -4z"/>
<path d="M2738 518 c-27 -43 -109 -203 -91 -179 22 30 115 201 110 201 -3 0
-11 -10 -19 -22z"/>
<path d="M7061 516 c7 -15 15 -23 17 -16 3 7 -3 19 -13 28 -15 16 -16 15 -4
-12z"/>
<path d="M2897 488 c-8 -19 -18 -46 -22 -59 -4 -13 -13 -37 -20 -54 -11 -27
-125 -323 -134 -349 -2 -6 2 -6 10 2 7 6 23 38 35 70 119 318 154 416 150 420
-3 2 -11 -11 -19 -30z"/>
<path d="M6815 495 c6 -28 37 -121 90 -265 13 -36 36 -101 52 -145 15 -44 29
-73 31 -64 2 9 -19 77 -47 150 -27 74 -65 177 -84 229 -44 122 -48 131 -42 95z"/>
<path d="M2776 444 c-9 -20 -15 -39 -12 -41 3 -3 12 12 21 32 20 49 14 56 -9
9z"/>
<path d="M7090 461 c0 -6 4 -13 10 -16 6 -3 7 1 4 9 -7 18 -14 21 -14 7z"/>
<path d="M2926 445 c-9 -26 -7 -32 5 -12 6 10 9 21 6 23 -2 3 -7 -2 -11 -11z"/>
<path d="M3123 375 c0 -44 2 -61 4 -37 2 23 2 59 0 80 -2 20 -4 1 -4 -43z"/>
<path d="M2885 317 c-37 -115 -40 -128 -26 -107 14 19 63 179 59 190 -2 5 -16
-33 -33 -83z"/>
<path d="M2741 372 c-6 -12 -11 -27 -11 -34 0 -7 7 0 15 16 9 16 13 31 11 33
-2 3 -9 -4 -15 -15z"/>
<path d="M7144 370 c3 -8 34 -85 70 -170 36 -85 66 -161 66 -167 0 -7 4 -13
10 -13 11 0 -1 34 -62 180 -39 91 -98 212 -84 170z"/>
<path d="M2675 329 c-4 -6 -5 -12 -2 -15 2 -3 7 2 10 11 7 17 1 20 -8 4z"/>
<path d="M7238 281 c20 -33 38 -58 40 -56 4 4 -66 115 -72 115 -3 0 11 -27 32
-59z"/>
<path d="M6772 290 c0 -19 2 -27 5 -17 2 9 2 25 0 35 -3 9 -5 1 -5 -18z"/>
<path d="M2595 259 c-15 -29 -23 -49 -16 -45 13 9 54 86 48 92 -2 2 -16 -19
-32 -47z"/>
<path d="M7056 250 c7 -66 45 -233 51 -226 3 3 -4 47 -16 98 -11 51 -25 113
-30 138 l-10 45 5 -55z"/>
<path d="M7279 277 c6 -16 23 -48 37 -73 14 -24 23 -48 20 -53 -4 -5 -2 -13 4
-16 6 -4 25 -34 42 -68 17 -34 33 -57 35 -51 2 5 -27 68 -63 140 -66 128 -95
175 -75 121z"/>
<path d="M2649 278 c-3 -11 -5 -48 -3 -48 11 0 23 40 14 45 -5 3 -10 5 -11 3z"/>
<path d="M2463 234 c-25 -56 -53 -95 -63 -89 -5 3 -12 0 -16 -6 -4 -8 -3 -9 4
-5 16 10 15 0 -4 -29 -9 -14 -21 -22 -27 -18 -6 3 -7 1 -3 -6 4 -6 0 -23 -9
-37 -9 -14 -14 -28 -12 -31 4 -4 36 42 91 130 34 55 66 120 61 125 -2 2 -12
-13 -22 -34z"/>
<path d="M3114 150 c0 -69 1 -97 3 -63 2 35 2 91 0 125 -2 35 -3 7 -3 -62z"/>
<path d="M2620 200 c-6 -11 -15 -18 -21 -15 -5 4 -9 3 -7 -2 1 -4 -13 -39 -30
-77 -36 -77 -37 -102 -4 -66 13 14 21 29 18 36 -2 6 2 24 9 40 7 16 16 36 19
44 3 8 13 25 22 38 9 12 14 22 11 22 -4 0 -11 -9 -17 -20z"/>
<path d="M2552 175 c-6 -14 -8 -25 -3 -25 8 0 23 41 17 47 -1 2 -8 -8 -14 -22z"/>
<path d="M7134 173 c35 -96 61 -154 64 -145 3 11 -57 162 -65 162 -3 0 -2 -8
1 -17z"/>
<path d="M2831 144 c0 -11 3 -14 6 -6 3 7 2 16 -1 19 -3 4 -6 -2 -5 -13z"/>
<path d="M7396 130 c15 -27 76 -110 81 -110 6 0 -5 18 -40 65 -36 48 -54 67
-41 45z"/>
<path d="M2810 96 c-32 -82 -32 -81 -19 -69 14 14 40 85 34 92 -3 2 -9 -8 -15
-23z"/>
<path d="M7022 110 c0 -8 6 -31 13 -50 7 -19 13 -28 13 -20 0 8 -6 31 -13 50
-7 19 -13 28 -13 20z"/>
<path d="M2508 68 c-24 -55 -15 -61 11 -7 24 48 24 49 14 49 -5 0 -16 -19 -25
-42z"/>
<path d="M6763 75 c0 -22 2 -30 4 -17 2 12 2 30 0 40 -3 9 -5 -1 -4 -23z"/>
</g>
</svg>
